<?xml version="1.0" encoding="UTF-8" standalone="no"?>
<!-- Created with Inkscape (http://www.inkscape.org/) -->

<svg
   width="180"
   height="180"
   viewBox="0 0 180 180"
   version="1.1"
   id="svg5"
   inkscape:version="1.2.2 (b0a8486541, 2022-12-01, custom)"
   sodipodi:docname="coffeeshop-logo-v1.svg"
   xmlns:inkscape="http://www.inkscape.org/namespaces/inkscape"
   xmlns:sodipodi="http://sodipodi.sourceforge.net/DTD/sodipodi-0.dtd"
   xmlns="http://www.w3.org/2000/svg"
   xmlns:svg="http://www.w3.org/2000/svg">
  <sodipodi:namedview
     id="namedview7"
     pagecolor="#ffffff"
     bordercolor="#000000"
     borderopacity="0.25"
     inkscape:showpageshadow="2"
     inkscape:pageopacity="0.0"
     inkscape:pagecheckerboard="0"
     inkscape:deskcolor="#d1d1d1"
     inkscape:document-units="px"
     showgrid="false"
     inkscape:zoom="2.8284272"
     inkscape:cx="56.214988"
     inkscape:cy="94.575529"
     inkscape:window-width="1366"
     inkscape:window-height="636"
     inkscape:window-x="0"
     inkscape:window-y="27"
     inkscape:window-maximized="1"
     inkscape:current-layer="layer1"
     inkscape:lockguides="false" />
  <defs
     id="defs2">
    <linearGradient
       id="linearGradient2119"
       inkscape:swatch="solid">
      <stop
         style="stop-color:#000000;stop-opacity:1;"
         offset="0"
         id="stop2117" />
    </linearGradient>
    <linearGradient
       id="linearGradient1937"
       inkscape:swatch="solid">
      <stop
         style="stop-color:#c5aaaa;stop-opacity:1;"
         offset="0"
         id="stop1935" />
    </linearGradient>
    <linearGradient
       id="linearGradient1897"
       inkscape:swatch="solid">
      <stop
         style="stop-color:#c5aaaa;stop-opacity:1;"
         offset="0"
         id="stop1895" />
    </linearGradient>
    <linearGradient
       id="linearGradient1868">
      <stop
         style="stop-color:#c5aaaa;stop-opacity:1;"
         offset="0"
         id="stop1866" />
    </linearGradient>
    <linearGradient
       id="Primary"
       inkscape:swatch="solid">
      <stop
         style="stop-color:#c5aaaa;stop-opacity:1;"
         offset="0"
         id="stop1125" />
    </linearGradient>
  </defs>
  <g
     inkscape:label="Layer 1"
     inkscape:groupmode="layer"
     id="layer1">
    <rect
       style="display:none;fill:#f9f9f9;stroke-width:10.3994;stroke-linecap:square"
       id="rect286"
       width="180"
       height="180"
       x="-180"
       y="0"
       transform="scale(-1,1)"
       inkscape:label="background"
       sodipodi:insensitive="true" />
    <path
       id="path12912"
       style="display:inline;fill:#b37400;fill-opacity:1;stroke:none;stroke-width:1.40887;stroke-linecap:round;stroke-linejoin:round;stroke-dasharray:none;stroke-opacity:1"
       d="M 90 0 A 90 90 0 0 0 0 90 A 90 90 0 0 0 90 180 A 90 90 0 0 0 180 90 A 90 90 0 0 0 90 0 z " />
    <circle
       style="fill:#fff1bf;fill-opacity:1;stroke:none;stroke-width:1.25233;stroke-linecap:round;stroke-linejoin:round;stroke-dasharray:none;stroke-opacity:1"
       id="circle12974"
       cx="90"
       cy="90"
       r="80" />
    <g
       aria-label="SunnyCoffeeShop"
       id="text2014"
       style="font-size:16px;font-family:Pacifico;-inkscape-font-specification:Pacifico;fill:#b37400;stroke-width:4;stroke-linecap:square">
      <path
         d="m 36.736141,93.991998 q -2.128,0 -3.408,-0.8 -1.28,-0.816 -1.28,-2.48 0,-0.88 0.304,-1.344 0.304,-0.464 0.896,-0.464 0.432,0 0.704,0.224 0.272,0.224 0.272,0.576 0,0.32 -0.048,0.56 0,0.064 -0.032,0.224 -0.016,0.16 -0.016,0.336 0,0.72 0.72,1.072 0.736,0.352 2.048,0.352 1.36,0 2.128,-0.48 0.768,-0.496 0.768,-1.376 0,-0.544 -0.352,-0.928 -0.352,-0.4 -0.88,-0.656 -0.528,-0.272 -1.488,-0.656 -1.232,-0.48 -2.016,-0.912 -0.768,-0.432 -1.328,-1.168 -0.544,-0.752 -0.544,-1.856 0,-1.152 0.608,-2.048 0.624,-0.896 1.776,-1.392 1.168,-0.496 2.736,-0.496 1.168,0 2.144,0.352 0.976,0.336 1.552,1.04 0.592,0.704 0.592,1.728 0,1.008 -0.304,1.52 -0.304,0.512 -0.896,0.512 -0.416,0 -0.704,-0.256 -0.272,-0.256 -0.272,-0.608 0,-0.304 0.048,-0.56 0.048,-0.48 0.048,-0.608 0,-0.672 -0.656,-1.024 -0.656,-0.352 -1.632,-0.352 -1.376,0 -2.112,0.512 -0.72,0.496 -0.72,1.408 0,0.608 0.368,1.04 0.384,0.432 0.944,0.72 0.56,0.288 1.568,0.688 1.216,0.496 1.952,0.896 0.736,0.4 1.248,1.088 0.528,0.688 0.528,1.696 0,1.888 -1.44,2.912 -1.424,1.008 -3.824,1.008 z"
         id="path315" />
      <path
         d="m 44.912106,93.943998 q -0.72,0 -1.184,-0.656 -0.448,-0.672 -0.448,-1.664 0,-1.2 0.16,-2.192 0.16,-1.008 0.528,-2.128 0.16,-0.48 0.448,-0.688 0.288,-0.208 0.912,-0.208 0.352,0 0.48,0.112 0.144,0.112 0.144,0.336 0,0.128 -0.176,0.864 -0.16,0.592 -0.256,1.072 -0.32,1.68 -0.32,2.24 0,0.336 0.08,0.48 0.08,0.128 0.256,0.128 0.24,0 0.592,-0.48 0.368,-0.48 0.768,-1.456 0.416,-0.976 0.8,-2.4 0.128,-0.48 0.384,-0.688 0.272,-0.208 0.8,-0.208 0.368,0 0.512,0.096 0.144,0.08 0.144,0.32 0,0.4 -0.4,2.192 -0.448,2.048 -0.448,2.528 0,0.304 0.128,0.48 0.128,0.16 0.336,0.16 0.32,0 0.752,-0.384 0.448,-0.4 1.184,-1.28 0.192,-0.224 0.432,-0.224 0.208,0 0.32,0.192 0.128,0.192 0.128,0.528 0,0.64 -0.304,0.992 -0.688,0.848 -1.488,1.392 -0.784,0.544 -1.792,0.544 -0.768,0 -1.136,-0.592 -0.352,-0.592 -0.352,-1.664 -0.272,1.088 -0.816,1.68 -0.544,0.576 -1.168,0.576 z"
         id="path317" />
      <path
         d="m 51.808104,93.943998 q -0.608,0 -0.864,-0.64 -0.24,-0.64 -0.24,-2.048 0,-2.08 0.592,-3.952 0.144,-0.464 0.464,-0.672 0.336,-0.224 0.928,-0.224 0.32,0 0.448,0.08 0.128,0.08 0.128,0.304 0,0.256 -0.24,1.152 -0.16,0.64 -0.256,1.12 -0.096,0.48 -0.16,1.184 0.528,-1.376 1.184,-2.24 0.656,-0.864 1.28,-1.232 0.64,-0.368 1.168,-0.368 1.04,0 1.04,1.04 0,0.624 -0.352,2.256 -0.304,1.392 -0.304,1.84 0,0.64 0.464,0.64 0.32,0 0.752,-0.384 0.448,-0.4 1.184,-1.28 0.192,-0.224 0.432,-0.224 0.208,0 0.32,0.192 0.128,0.192 0.128,0.528 0,0.64 -0.304,0.992 -0.688,0.848 -1.488,1.392 -0.784,0.544 -1.792,0.544 -0.816,0 -1.232,-0.464 -0.416,-0.48 -0.416,-1.376 0,-0.448 0.224,-1.6 0.208,-1.008 0.208,-1.392 0,-0.256 -0.176,-0.256 -0.208,0 -0.592,0.544 -0.368,0.528 -0.768,1.408 -0.384,0.88 -0.624,1.856 -0.176,0.752 -0.416,1.024 -0.224,0.256 -0.72,0.256 z"
         id="path319" />
      <path
         d="m 59.744078,93.943998 q -0.608,0 -0.864,-0.64 -0.24,-0.64 -0.24,-2.048 0,-2.08 0.592,-3.952 0.144,-0.464 0.464,-0.672 0.336,-0.224 0.928,-0.224 0.32,0 0.448,0.08 0.128,0.08 0.128,0.304 0,0.256 -0.24,1.152 -0.16,0.64 -0.256,1.12 -0.096,0.48 -0.16,1.184 0.528,-1.376 1.184,-2.24 0.656,-0.864 1.28,-1.232 0.64,-0.368 1.168,-0.368 1.04,0 1.04,1.04 0,0.624 -0.352,2.256 -0.304,1.392 -0.304,1.84 0,0.64 0.464,0.64 0.32,0 0.752,-0.384 0.448,-0.4 1.184,-1.28 0.192,-0.224 0.432,-0.224 0.208,0 0.32,0.192 0.128,0.192 0.128,0.528 0,0.64 -0.304,0.992 -0.688,0.848 -1.488,1.392 -0.784,0.544 -1.792,0.544 -0.816,0 -1.232,-0.464 -0.416,-0.48 -0.416,-1.376 0,-0.448 0.224,-1.6 0.208,-1.008 0.208,-1.392 0,-0.256 -0.176,-0.256 -0.208,0 -0.592,0.544 -0.368,0.528 -0.768,1.408 -0.384,0.88 -0.624,1.856 -0.176,0.752 -0.416,1.024 -0.224,0.256 -0.72,0.256 z"
         id="path321" />
      <path
         d="m 74.736052,90.327998 q 0.208,0 0.32,0.208 0.128,0.192 0.128,0.496 0,0.368 -0.112,0.576 -0.112,0.208 -0.352,0.368 l -3.072,2.064 q -0.608,3.312 -1.6,5.2 -0.976,1.904002 -2.496,1.904002 -0.816,0 -1.328,-0.512 -0.512,-0.496 -0.512,-1.312002 0,-0.752 0.336,-1.536 0.352,-0.784 1.28,-1.808 0.944,-1.008 2.656,-2.32 l 0.048,-0.368 q 0.112,-0.592 0.256,-1.696 -0.32,1.152 -0.896,1.76 -0.576,0.592 -1.216,0.592 -0.72,0 -1.184,-0.656 -0.448,-0.672 -0.448,-1.664 0,-1.2 0.16,-2.192 0.16,-1.008 0.528,-2.128 0.16,-0.48 0.448,-0.688 0.288,-0.208 0.912,-0.208 0.352,0 0.48,0.112 0.144,0.112 0.144,0.336 0,0.128 -0.176,0.864 -0.16,0.592 -0.256,1.072 -0.128,0.656 -0.224,1.264 -0.096,0.592 -0.096,0.976 0,0.608 0.336,0.608 0.24,0 0.592,-0.48 0.368,-0.48 0.768,-1.456 0.416,-0.976 0.8,-2.4 0.128,-0.48 0.384,-0.688 0.272,-0.208 0.8,-0.208 0.368,0 0.512,0.096 0.144,0.096 0.144,0.32 0,0.4 -0.416,2.752 l -0.416,2.576 q 1.232,-0.928 2.4,-1.696 0.208,-0.128 0.368,-0.128 z m -7.008,9.264 q 0.4,0 0.896,-0.928 0.496,-0.928 0.992,-3.088 -1.232,1.04 -1.792,1.888 -0.544,0.864 -0.544,1.504 0,0.272 0.096,0.448 0.112,0.176 0.352,0.176 z"
         id="path323" />
      <path
         d="m 80.688023,93.943998 q -1.904,0 -3.312,-0.688 -1.408,-0.704 -2.16,-1.984 -0.752,-1.28 -0.752,-2.976 0,-2.352 0.88,-4.176 0.896,-1.824 2.416,-2.816 1.52,-1.008 3.376,-1.008 1.728,0 2.624,0.896 0.896,0.88 0.896,2.336 0,0.976 -0.352,1.568 -0.336,0.592 -0.976,0.592 -0.448,0 -0.704,-0.208 -0.256,-0.208 -0.256,-0.608 0,-0.144 0.064,-0.528 0.096,-0.48 0.096,-0.768 0,-1.456 -1.552,-1.456 -1.056,0 -2.016,0.688 -0.96,0.688 -1.552,2.032 -0.592,1.328 -0.592,3.168 0,1.92 1.072,2.976 1.072,1.04 3.168,1.04 1.04,0 2.096,-0.256 1.072,-0.272 2.368,-0.816 0.24,-0.096 0.4,-0.096 0.256,0 0.384,0.192 0.128,0.192 0.128,0.496 0,0.976 -1.056,1.44 -1.136,0.496 -2.368,0.736 -1.216,0.224 -2.32,0.224 z"
         id="path325" />
      <path
         d="m 93.184002,88.951998 q 0.208,0 0.32,0.208 0.112,0.208 0.112,0.528 0,0.768 -0.464,0.912 -0.96,0.336 -2.112,0.384 -0.304,1.344 -1.2,2.16 -0.896,0.8 -2.032,0.8 -0.96,0 -1.648,-0.464 -0.672,-0.464 -1.024,-1.232 -0.352,-0.768 -0.352,-1.664 0,-1.216 0.464,-2.16 0.464,-0.96 1.28,-1.488 0.816,-0.544 1.808,-0.544 1.216,0 1.952,0.848 0.752,0.832 0.88,2.064 0.752,-0.048 1.792,-0.32 0.128,-0.032 0.224,-0.032 z m -5.248,3.296 q 0.512,0 0.88,-0.416 0.384,-0.416 0.512,-1.2 -0.496,-0.336 -0.768,-0.88 -0.256,-0.544 -0.256,-1.152 0,-0.256 0.048,-0.512 h -0.08 q -0.64,0 -1.072,0.624 -0.416,0.608 -0.416,1.728 0,0.88 0.336,1.344 0.352,0.464 0.816,0.464 z"
         id="path327" />
      <path
         d="m 103.63198,89.383998 q 0.448,0 0.448,0.672 0,1.28 -2.048,1.28 -0.08,0 -0.896,-0.048 0.176,0.848 0.272,1.936 0.112,1.072 0.112,2.144 0,1.728 -0.592,2.64 -0.576,0.912 -1.488005,0.912 -1.152,0 -1.648,-1.632 -0.48,-1.632 -0.48,-4.928 0,-0.848 0.048,-1.712 -0.144,0.016 -0.464,0.016 -0.432,0 -0.704,0.016 0.16,1.184 0.24,2.272 0.096,1.088 0.096,2.416 0,1.728 -0.592,2.64 -0.576,0.912 -1.488,0.912 -1.152,0 -1.648,-1.632 -0.48,-1.632 -0.48,-4.928 0,-3.088 0.608,-6.24 0.624,-3.168 1.728,-5.232 1.104,-2.064 2.496,-2.064 0.72,0 1.12,0.608 0.416,0.592 0.416,1.712 0,1.744 -0.944,3.888 -0.928,2.128 -3.296,4.48 -0.144,1.408 -0.144,2.736 0,1.648 0.112,3.376 0.112,1.744 0.368,1.744 0.24,0 0.384,-0.4 0.144,-0.4 0.144,-1.264 0,-1.568 -0.128,-2.768 -0.112,-1.216 -0.272,-1.952 -0.032,-0.112 -0.032,-0.336 0,-0.688 0.544,-1.136 0.56,-0.448 1.472,-0.464 h 0.384 0.224 q 0.304,-2.656 0.992,-4.992 0.704,-2.352 1.696005,-3.792 1.008,-1.44 2.16,-1.44 0.752,0 1.168,0.672 0.432,0.672 0.432,1.808 0,1.408 -0.528,3.152 -0.528,1.744 -1.568,3.28 -1.024,1.52 -2.448005,2.288 -0.112,1.072 -0.112,2.224 0,1.648 0.112,3.376 0.112,1.744 0.368,1.744 0.240005,0 0.384005,-0.4 0.144,-0.4 0.144,-1.264 0,-1.248 -0.128,-2.384 -0.128,-1.136 -0.272005,-1.856 -0.032,-0.128 -0.032,-0.352 0,-0.656 0.448005,-1.104 0.448,-0.464 1.024,-0.464 0.544,0 0.992,-0.032 0.464,-0.048 0.592,-0.064 0.544,-0.064 0.704,-0.064 z m -6.816005,-8.976 q -0.288,0 -0.688,0.976 -0.384,0.976 -0.768,2.592 -0.384,1.616 -0.656,3.44 1.216,-1.44 1.824,-3.12 0.624,-1.696 0.624,-3.072 0,-0.4 -0.096,-0.608 -0.096,-0.208 -0.24,-0.208 z m 5.200005,0 q -0.32,0 -0.784,1.12 -0.448,1.12 -0.896,2.928 -0.432005,1.808 -0.720005,3.744 0.912005,-0.72 1.536005,-1.92 0.64,-1.2 0.944,-2.512 0.32,-1.312 0.32,-2.384 0,-0.976 -0.4,-0.976 z"
         id="path329" />
      <path
         d="m 109.99994,90.295998 q 0.208,0 0.32,0.192 0.128,0.192 0.128,0.528 0,0.64 -0.304,0.992 -0.592,0.72 -1.68,1.328 -1.072,0.608 -2.304,0.608 -1.68,0 -2.608,-0.912 -0.928,-0.912 -0.928,-2.496 0,-1.104 0.464,-2.048 0.464,-0.96 1.28,-1.52 0.832,-0.56 1.872,-0.56 0.928,0 1.488,0.56 0.56,0.544 0.56,1.488 0,1.104 -0.8,1.904 -0.784,0.784 -2.672,1.248 0.4,0.736 1.52,0.736 0.72,0 1.632,-0.496 0.928,-0.512 1.6,-1.328 0.192,-0.224 0.432,-0.224 z m -4.032,-2.32 q -0.592,0 -1.008,0.688 -0.4,0.688 -0.4,1.664 v 0.032 q 0.944,-0.224 1.488,-0.672 0.544,-0.448 0.544,-1.04 0,-0.304 -0.176,-0.48 -0.16,-0.192 -0.448,-0.192 z"
         id="path331" />
      <path
         d="m 116.28793,90.295998 q 0.208,0 0.32,0.192 0.128,0.192 0.128,0.528 0,0.64 -0.304,0.992 -0.592,0.72 -1.68,1.328 -1.072,0.608 -2.304,0.608 -1.68,0 -2.608,-0.912 -0.928,-0.912 -0.928,-2.496 0,-1.104 0.464,-2.048 0.464,-0.96 1.28,-1.52 0.832,-0.56 1.872,-0.56 0.928,0 1.488,0.56 0.56,0.544 0.56,1.488 0,1.104 -0.8,1.904 -0.784,0.784 -2.672,1.248 0.4,0.736 1.52,0.736 0.72,0 1.632,-0.496 0.928,-0.512 1.6,-1.328 0.192,-0.224 0.432,-0.224 z m -4.032,-2.32 q -0.592,0 -1.008,0.688 -0.4,0.688 -0.4,1.664 v 0.032 q 0.944,-0.224 1.488,-0.672 0.544,-0.448 0.544,-1.04 0,-0.304 -0.176,-0.48 -0.16,-0.192 -0.448,-0.192 z"
         id="path333" />
      <path
         d="m 119.90393,93.991998 q -2.128,0 -3.408,-0.8 -1.28,-0.816 -1.28,-2.48 0,-0.88 0.304,-1.344 0.304,-0.464 0.896,-0.464 0.432,0 0.704,0.224 0.272,0.224 0.272,0.576 0,0.32 -0.048,0.56 0,0.064 -0.032,0.224 -0.016,0.16 -0.016,0.336 0,0.72 0.72,1.072 0.736,0.352 2.048,0.352 1.36,0 2.128,-0.48 0.768,-0.496 0.768,-1.376 0,-0.544 -0.352,-0.928 -0.352,-0.4 -0.88,-0.656 -0.528,-0.272 -1.488,-0.656 -1.232,-0.48 -2.016,-0.912 -0.768,-0.432 -1.328,-1.168 -0.544,-0.752 -0.544,-1.856 0,-1.152 0.608,-2.048 0.624,-0.896 1.776,-1.392 1.168,-0.496 2.736,-0.496 1.168,0 2.144,0.352 0.976,0.336 1.552,1.04 0.592,0.704 0.592,1.728 0,1.008 -0.304,1.52 -0.304,0.512 -0.896,0.512 -0.416,0 -0.704,-0.256 -0.272,-0.256 -0.272,-0.608 0,-0.304 0.048,-0.56 0.048,-0.48 0.048,-0.608 0,-0.672 -0.656,-1.024 -0.656,-0.352 -1.632,-0.352 -1.376,0 -2.112,0.512 -0.72,0.496 -0.72,1.408 0,0.608 0.368,1.04 0.384,0.432 0.944,0.72 0.56,0.288 1.568,0.688 1.216,0.496 1.952,0.896 0.736,0.4 1.248,1.088 0.528,0.688 0.528,1.696 0,1.888 -1.44,2.912 -1.424,1.008 -3.824,1.008 z"
         id="path335" />
      <path
         d="m 135.24791,90.295998 q 0.208,0 0.32,0.192 0.128,0.192 0.128,0.528 0,0.64 -0.304,0.992 -0.736,0.848 -1.52,1.392 -0.768,0.544 -1.76,0.544 -0.816,0 -1.232,-0.464 -0.416,-0.48 -0.416,-1.376 0,-0.448 0.224,-1.6 0.208,-1.008 0.208,-1.392 0,-0.256 -0.176,-0.256 -0.208,0 -0.592,0.544 -0.384,0.528 -0.768,1.408 -0.384,0.88 -0.624,1.856 -0.304,1.28 -1.504,1.28 -0.48,0 -0.64,-0.336 -0.144,-0.352 -0.144,-1.248 0,-0.512 0.016,-0.816 l 0.016,-1.28 q 0,-2.464 0.496,-5.136 0.512,-2.672 1.488,-4.48 0.992,-1.824 2.368,-1.824 0.736,0 1.184,0.64 0.464,0.624 0.464,1.632 0,1.616 -0.944,3.36 -0.944,1.728 -3.072,4.048 -0.048,0.832 -0.048,1.712 0.528,-1.36 1.168,-2.208 0.656,-0.864 1.28,-1.232 0.64,-0.368 1.168,-0.368 1.04,0 1.04,1.04 0,0.624 -0.352,2.256 -0.304,1.392 -0.304,1.84 0,0.64 0.464,0.64 0.32,0 0.752,-0.384 0.448,-0.4 1.184,-1.28 0.192,-0.224 0.432,-0.224 z m -4.752,-9.888 q -0.288,0 -0.64,0.832 -0.352,0.816 -0.688,2.224 -0.32,1.392 -0.528,3.04 0.992,-1.168 1.632,-2.544 0.656,-1.376 0.656,-2.496 0,-0.512 -0.112,-0.784 -0.112,-0.272 -0.32,-0.272 z"
         id="path337" />
      <path
         d="m 142.55989,88.951998 q 0.208,0 0.32,0.208 0.112,0.208 0.112,0.528 0,0.768 -0.464,0.912 -0.96,0.336 -2.112,0.384 -0.304,1.344 -1.2,2.16 -0.896,0.8 -2.032,0.8 -0.96,0 -1.648,-0.464 -0.672,-0.464 -1.024,-1.232 -0.352,-0.768 -0.352,-1.664 0,-1.216 0.464,-2.16 0.464,-0.96 1.28,-1.488 0.816,-0.544 1.808,-0.544 1.216,0 1.952,0.848 0.752,0.832 0.88,2.064 0.752,-0.048 1.792,-0.32 0.128,-0.032 0.224,-0.032 z m -5.248,3.296 q 0.512,0 0.88,-0.416 0.384,-0.416 0.512,-1.2 -0.496,-0.336 -0.768,-0.88 -0.256,-0.544 -0.256,-1.152 0,-0.256 0.048,-0.512 h -0.08 q -0.64,0 -1.072,0.624 -0.416,0.608 -0.416,1.728 0,0.88 0.336,1.344 0.352,0.464 0.816,0.464 z"
         id="path339" />
      <path
         d="m 147.95186,88.983998 q 0,1.264 -0.592,2.4 -0.576,1.12 -1.552,1.824 -0.96,0.704 -2.064,0.736 -0.208,3.088 -0.944,5.152 -0.736,2.080002 -2.16,2.080002 -0.864,0 -1.28,-0.624 -0.416,-0.624002 -0.416,-1.728002 0,-1.568 0.72,-3.664 0.72,-2.08 2.224,-4.592 0,-2.336 -0.032,-3.248 -0.016,-0.464 0.368,-0.736 0.384,-0.272 0.96,-0.272 0.336,0 0.48,0.144 0.16,0.128 0.176,0.528 0,0.4 0.016,0.592 0.512,-0.64 1.008,-0.912 0.496,-0.288 1.056,-0.288 0.896,0 1.456,0.72 0.576,0.72 0.576,1.888 z m -4.128,3.424 q 0.576,-0.128 1.056,-0.624 0.496,-0.512 0.784,-1.248 0.288,-0.752 0.288,-1.568 0,-0.48 -0.192,-0.72 -0.192,-0.256 -0.512,-0.256 -0.576,0 -1.392,1.216 -0.016,0.704 -0.016,2.064 0,0.736 -0.016,1.136 z m -3.056,7.2 q 0.432,0 0.72,-1.888 0.288,-1.872 0.368,-4.672 -0.688,1.6 -1.088,3.056 -0.4,1.456 -0.4,2.448 0,0.512 0.128,0.784 0.112,0.272 0.272,0.272 z"
         id="path341" />
    </g>
    <text
       xml:space="preserve"
       style="font-style:normal;font-variant:normal;font-weight:normal;font-stretch:normal;font-size:12px;font-family:Roboto;-inkscape-font-specification:Roboto;fill:#4d4d4d;fill-opacity:1;stroke:#4d4d4d;stroke-width:1;stroke-linecap:round;stroke-linejoin:round;stroke-dasharray:none;stroke-opacity:1"
       x="53.983421"
       y="-50.18626"
       id="text5311"><tspan
         sodipodi:role="line"
         id="tspan5309"
         x="53.983421"
         y="-50.18626" /></text>
    <g
       id="g17801"
       transform="matrix(1.5339354,0,0,1.5339354,-42.920066,-29.909434)">
      <ellipse
         style="fill:#7d6200;fill-opacity:1;stroke:none;stroke-width:3.66579;stroke-linecap:round;stroke-linejoin:round;stroke-dasharray:none;stroke-opacity:1"
         id="ellipse3352"
         cx="84.93737"
         cy="57.400894"
         rx="15.638155"
         ry="3.7798965" />
      <path
         style="fill:none;fill-opacity:1;stroke:#b37400;stroke-width:1;stroke-linecap:round;stroke-linejoin:round;stroke-dasharray:none;stroke-opacity:1"
         d="m 97.208961,48.456426 c 0,0 1.256743,-1.383843 2.819209,-1.089816 1.56247,0.294028 2.09898,3.015084 1.08071,3.969783 -1.01826,0.9547 -7.228383,2.298058 -7.228383,2.298058 z"
         id="path3376" />
      <path
         style="fill:#b37400;fill-opacity:1;stroke:none;stroke-width:3.529;stroke-linecap:round;stroke-linejoin:miter;stroke-dasharray:none;stroke-opacity:1"
         d="m 71.39786,45.296502 c 0,0 3.246283,10.318435 7.833139,11.740514 4.586855,1.422079 7.458137,1.274442 12.424248,0.01529 3.750321,-0.950887 6.755958,-11.3298 6.755958,-11.3298 z"
         id="path3233"
         sodipodi:nodetypes="csscc" />
      <ellipse
         style="fill:#ffe380;fill-opacity:1;stroke:#b37400;stroke-width:0.987879;stroke-linecap:round;stroke-linejoin:round;stroke-dasharray:none;stroke-opacity:1"
         id="path2246"
         cx="84.974342"
         cy="45.400898"
         rx="13.154394"
         ry="2.1283338" />
      <path
         style="fill:none;fill-opacity:1;fill-rule:nonzero;stroke:#7d6200;stroke-width:1;stroke-linecap:round;stroke-linejoin:round;stroke-dasharray:none;stroke-opacity:1"
         d="m 79.902638,33.441771 c 0,0 -1.719785,0.276111 -1.719785,3.501067 0,2.774965 2.582611,2.585613 2.683308,4.7944 0.100697,2.208788 -1.983696,3.550772 -1.983696,3.550772"
         id="path17365"
         sodipodi:nodetypes="cssc" />
      <path
         style="fill:none;fill-opacity:1;fill-rule:nonzero;stroke:#7d6200;stroke-width:1;stroke-linecap:round;stroke-linejoin:round;stroke-dasharray:none;stroke-opacity:1"
         d="m 85.902638,33.441771 c 0,0 -1.719785,0.276111 -1.719785,3.501067 0,2.774965 2.582607,2.585613 2.683307,4.7944 0.1007,2.208788 -1.983695,3.550772 -1.983695,3.550772"
         id="path17743"
         sodipodi:nodetypes="cssc" />
      <path
         style="fill:none;fill-opacity:1;fill-rule:nonzero;stroke:#7d6200;stroke-width:1;stroke-linecap:round;stroke-linejoin:round;stroke-dasharray:none;stroke-opacity:1"
         d="m 91.902638,33.441771 c 0,0 -1.719785,0.276111 -1.719785,3.501067 0,2.774965 2.582607,2.585613 2.683307,4.7944 0.1007,2.208788 -1.983695,3.550772 -1.983695,3.550772"
         id="path17745"
         sodipodi:nodetypes="cssc" />
    </g>
    <rect
       style="fill:#b37400;fill-opacity:1;fill-rule:nonzero;stroke:none;stroke-width:0;stroke-linecap:round;stroke-linejoin:round;stroke-dasharray:none;stroke-opacity:1"
       id="rect17889"
       width="86.567459"
       height="8.1000004"
       x="46.708412"
       y="125.82934"
       ry="4.0500002" />
    <rect
       style="fill:#b37400;fill-opacity:1;fill-rule:nonzero;stroke:none;stroke-width:0;stroke-linecap:round;stroke-linejoin:round;stroke-dasharray:none;stroke-opacity:1"
       id="rect18239"
       width="86.567459"
       height="8"
       x="46.708412"
       y="145.82935"
       ry="4" />
  </g>
</svg>
