<svg width="235" height="40" viewBox="0 0 235 40" fill="none" xmlns="http://www.w3.org/2000/svg">
<path d="M20.9298 17.4093H2.86337V33.1606C3.02244 33.5291 3.40877 34.3351 3.68147 34.6114C3.95417 34.8877 4.7041 35.3713 5.04498 35.5786H18.6119C18.9755 35.4404 19.8118 35.0674 20.2481 34.6805C20.6844 34.2936 20.8844 33.4139 20.9298 33.0225V17.4093Z" fill="#DF931A"/>
<path d="M21.9525 22.5216V20.5181C23.5887 20.8405 26.8884 22.3282 26.9975 25.6995C27.1065 29.0708 23.6796 30.7887 21.9525 31.2263V29.2228C22.8615 28.7392 24.6795 27.3575 24.6795 25.6995C24.6795 24.0415 22.8615 22.89 21.9525 22.5216Z" fill="#DF931A"/>
<path d="M23.8614 36.6149H0C0.159076 37.1675 0.599944 38.4111 1.09081 38.9637C1.58167 39.5164 2.43159 39.8849 2.79519 40H21.2025C21.5434 39.8618 22.3615 39.4335 22.9069 38.8256C23.4523 38.2176 23.7705 37.0984 23.8614 36.6149Z" fill="#DF931A"/>
<path d="M5.99943 11.8826C5.99943 13.431 7.81745 15.2216 8.79463 15.8204C8.15832 15.0835 6.88572 13.3057 6.88572 12.0898C6.88572 10.5699 9.20368 8.49741 9.34003 7.1848C9.44911 6.13472 8.06742 4.8129 7.36294 4.28325C7.74927 4.85895 8.53556 6.24525 8.5901 7.1848C8.65828 8.35924 5.99943 9.53368 5.99943 11.8826Z" fill="#DF931A"/>
<path d="M10.0218 10.9154C10.0218 13.3472 12.6579 15.1986 13.976 15.8204C13.0897 14.8532 11.3171 12.5181 11.3171 10.9154C11.2489 7.9093 14.3168 6.2867 14.5214 4.28325C14.685 2.68048 12.7261 0.759931 11.7262 0C12.2943 0.944157 13.4306 3.12263 13.4306 4.28325C13.4306 5.73402 10.0218 7.87565 10.0218 10.9154Z" fill="#DF931A"/>
<path d="M14.5895 12.0898C14.5895 13.8584 16.6348 15.3138 17.6574 15.8204C16.9757 15.1065 15.5849 13.361 15.4758 12.0898C15.3395 10.5009 17.9983 8.91192 17.9983 7.1848C17.9983 5.80311 16.7257 4.67473 16.0894 4.28325C16.453 4.76684 17.1802 6.02418 17.1802 7.1848C17.1802 8.63558 14.5895 9.8791 14.5895 12.0898Z" fill="#DF931A"/>
<path d="M49.5519 30.408C48.6559 30.408 47.7919 30.288 46.9599 30.048C46.1279 29.824 45.4479 29.496 44.9199 29.064C44.3919 28.616 44.1279 28.104 44.1279 27.528V24.72H44.7999C45.0399 26.352 45.5439 27.528 46.3119 28.248C47.0799 28.968 48.1519 29.328 49.5279 29.328C50.4559 29.328 51.1919 29.128 51.7359 28.728C52.2799 28.328 52.5519 27.752 52.5519 27C52.5519 26.36 52.3519 25.816 51.9519 25.368C51.5519 24.92 50.9279 24.432 50.0799 23.904L47.1279 22.128C46.0559 21.504 45.2879 20.856 44.8239 20.184C44.3759 19.512 44.1519 18.728 44.1519 17.832C44.1519 16.568 44.6319 15.568 45.5919 14.832C46.5679 14.096 47.8799 13.728 49.5279 13.728C50.4239 13.728 51.2879 13.848 52.1199 14.088C52.9519 14.312 53.6319 14.648 54.1599 15.096C54.6879 15.528 54.9519 16.032 54.9519 16.608V19.416H54.2799C54.0079 17.784 53.5039 16.608 52.7679 15.888C52.0319 15.168 51.0399 14.808 49.7919 14.808C48.9279 14.808 48.2399 15.016 47.7279 15.432C47.2319 15.848 46.9839 16.416 46.9839 17.136C46.9839 17.76 47.1759 18.28 47.5599 18.696C47.9599 19.096 48.5999 19.552 49.4799 20.064L52.4319 21.816C53.5519 22.472 54.3519 23.112 54.8319 23.736C55.3279 24.344 55.5759 25.08 55.5759 25.944C55.5759 27.336 55.0479 28.432 53.9919 29.232C52.9519 30.016 51.4719 30.408 49.5519 30.408Z" fill="#DF931A"/>
<path d="M62.5731 30.24C61.0531 30.24 59.9331 29.888 59.2131 29.184C58.4931 28.48 58.1331 27.36 58.1331 25.824V21.84C58.1331 21.024 58.0211 20.424 57.7971 20.04C57.5731 19.64 57.1251 19.44 56.4531 19.44H56.2131V18.72H59.0931C59.6691 18.72 60.1091 18.816 60.4131 19.008C60.7171 19.2 60.9331 19.52 61.0611 19.968C61.1891 20.4 61.2531 21.024 61.2531 21.84V25.848C61.2531 27.048 61.4211 27.904 61.7571 28.416C62.0931 28.912 62.6051 29.16 63.2931 29.16C63.8851 29.16 64.4211 28.904 64.9011 28.392C65.0771 28.216 65.2611 27.952 65.4531 27.6V18.72H68.5731V30H66.5331L65.6931 28.92H65.5731C65.3491 29.16 65.0851 29.384 64.7811 29.592C64.1731 30.024 63.4371 30.24 62.5731 30.24Z" fill="#DF931A"/>
<path d="M71.9434 21.84C71.9434 21.024 71.8314 20.424 71.6074 20.04C71.3994 19.64 70.9594 19.44 70.2874 19.44H70.0474V18.72H72.4234C72.9674 18.72 73.3914 18.792 73.6954 18.936C74.0154 19.064 74.2634 19.288 74.4394 19.608C75.2554 18.856 76.4234 18.48 77.9434 18.48C79.4634 18.48 80.5994 18.84 81.3514 19.56C82.1194 20.264 82.5034 21.376 82.5034 22.896V30H79.3834V22.872C79.3834 21.768 79.1754 20.96 78.7594 20.448C78.3594 19.936 77.8074 19.68 77.1034 19.68C76.6074 19.68 76.1674 19.752 75.7834 19.896C75.4154 20.024 75.1194 20.2 74.8954 20.424L74.9674 20.76C75.0314 20.952 75.0634 21.264 75.0634 21.696V30H71.9434V21.84Z" fill="#DF931A"/>
<path d="M85.7481 21.84C85.7481 21.024 85.6361 20.424 85.4121 20.04C85.2041 19.64 84.7641 19.44 84.0921 19.44H83.8521V18.72H86.2281C86.7721 18.72 87.1961 18.792 87.5001 18.936C87.8201 19.064 88.0681 19.288 88.2441 19.608C89.0601 18.856 90.2281 18.48 91.7481 18.48C93.2681 18.48 94.4041 18.84 95.1561 19.56C95.9241 20.264 96.3081 21.376 96.3081 22.896V30H93.1881V22.872C93.1881 21.768 92.9801 20.96 92.5641 20.448C92.1641 19.936 91.6121 19.68 90.9081 19.68C90.4121 19.68 89.9721 19.752 89.5881 19.896C89.2201 20.024 88.9241 20.2 88.7001 20.424L88.7721 20.76C88.8361 20.952 88.8681 21.264 88.8681 21.696V30H85.7481V21.84Z" fill="#DF931A"/>
<path d="M99.6532 33.96C100.533 33.96 101.245 33.792 101.789 33.456C102.333 33.12 102.773 32.512 103.109 31.632L103.613 30.336L99.2932 20.88C98.7652 19.728 98.0212 19.088 97.0612 18.96V18.48H99.1732C99.8772 18.48 100.501 18.656 101.045 19.008C101.589 19.344 102.005 19.808 102.293 20.4L105.053 26.448L107.981 18.72H109.253L104.405 31.56C103.957 32.808 103.437 33.656 102.845 34.104C102.253 34.568 101.509 34.8 100.613 34.8H99.6532V33.96Z" fill="#DF931A"/>
<path d="M118.464 30.48C116.816 30.48 115.392 30.128 114.192 29.424C113.008 28.704 112.104 27.728 111.48 26.496C110.856 25.264 110.544 23.872 110.544 22.32C110.544 20.72 110.888 19.264 111.576 17.952C112.264 16.624 113.208 15.584 114.408 14.832C115.624 14.064 116.976 13.68 118.464 13.68C119.872 13.68 121.048 13.864 121.992 14.232C122.936 14.584 123.656 15.048 124.152 15.624C124.44 15.992 124.616 16.448 124.68 16.992C124.744 17.536 124.776 18.296 124.776 19.272H124.056C123.752 17.8 123.192 16.68 122.376 15.912C121.56 15.144 120.496 14.76 119.184 14.76C117.552 14.76 116.264 15.336 115.32 16.488C114.376 17.64 113.904 19.584 113.904 22.32C113.904 24.352 114.336 26.04 115.2 27.384C116.064 28.728 117.392 29.4 119.184 29.4C120.304 29.4 121.328 29.104 122.256 28.512C123.2 27.92 123.96 27.072 124.536 25.968L125.376 26.616C124.608 27.96 123.68 28.944 122.592 29.568C121.504 30.176 120.128 30.48 118.464 30.48Z" fill="#DF931A"/>
<path d="M132.569 30.24C131.401 30.24 130.377 29.984 129.497 29.472C128.633 28.944 127.969 28.24 127.505 27.36C127.041 26.464 126.809 25.464 126.809 24.36C126.809 23.256 127.041 22.264 127.505 21.384C127.969 20.488 128.633 19.784 129.497 19.272C130.377 18.744 131.401 18.48 132.569 18.48C133.737 18.48 134.753 18.744 135.617 19.272C136.497 19.784 137.169 20.488 137.633 21.384C138.097 22.264 138.329 23.256 138.329 24.36C138.329 25.464 138.097 26.464 137.633 27.36C137.169 28.24 136.497 28.944 135.617 29.472C134.753 29.984 133.737 30.24 132.569 30.24ZM132.569 29.16C133.385 29.16 134.009 28.72 134.441 27.84C134.873 26.96 135.089 25.8 135.089 24.36C135.089 22.92 134.873 21.76 134.441 20.88C134.009 20 133.385 19.56 132.569 19.56C131.753 19.56 131.129 20 130.697 20.88C130.265 21.76 130.049 22.92 130.049 24.36C130.049 25.8 130.265 26.96 130.697 27.84C131.129 28.72 131.753 29.16 132.569 29.16Z" fill="#DF931A"/>
<path d="M140.915 19.8H139.475V18.72H140.915V18.072C140.915 16.712 141.299 15.68 142.067 14.976C142.851 14.272 144.027 13.92 145.595 13.92C146.043 13.92 146.467 13.96 146.867 14.04C147.283 14.104 147.587 14.2 147.779 14.328C148.195 14.568 148.507 14.912 148.715 15.36L147.755 16.2C147.515 15.816 147.219 15.52 146.867 15.312C146.515 15.104 146.131 15 145.715 15C145.155 15 144.731 15.232 144.443 15.696C144.171 16.16 144.035 16.952 144.035 18.072V18.72H147.155V19.8H144.035V30H140.915V19.8Z" fill="#DF931A"/>
<path d="M149.119 19.8H147.679V18.72H149.119V18.072C149.119 16.712 149.503 15.68 150.271 14.976C151.055 14.272 152.231 13.92 153.799 13.92C154.247 13.92 154.671 13.96 155.071 14.04C155.487 14.104 155.791 14.2 155.983 14.328C156.399 14.568 156.711 14.912 156.919 15.36L155.959 16.2C155.719 15.816 155.423 15.52 155.071 15.312C154.719 15.104 154.335 15 153.919 15C153.359 15 152.935 15.232 152.647 15.696C152.375 16.16 152.239 16.952 152.239 18.072V18.72H155.359V19.8H152.239V30H149.119V19.8Z" fill="#DF931A"/>
<path d="M161.72 30.24C160.616 30.24 159.648 29.984 158.816 29.472C157.984 28.96 157.336 28.264 156.872 27.384C156.424 26.488 156.2 25.48 156.2 24.36C156.2 23.112 156.424 22.048 156.872 21.168C157.336 20.288 157.968 19.624 158.768 19.176C159.568 18.712 160.472 18.48 161.48 18.48C162.472 18.48 163.368 18.68 164.168 19.08C164.968 19.48 165.6 20.048 166.064 20.784C166.528 21.504 166.76 22.336 166.76 23.28C166.76 23.584 166.744 23.928 166.712 24.312L166.664 24.792H159.44C159.44 26.312 159.672 27.424 160.136 28.128C160.6 28.816 161.248 29.16 162.08 29.16C162.848 29.16 163.488 28.992 164 28.656C164.528 28.304 165.032 27.808 165.512 27.168L166.256 27.72C165.792 28.44 165.208 29.04 164.504 29.52C163.816 30 162.888 30.24 161.72 30.24ZM163.52 23.712C163.52 22.208 163.344 21.144 162.992 20.52C162.64 19.88 162.136 19.56 161.48 19.56C160.872 19.56 160.376 19.888 159.992 20.544C159.624 21.184 159.44 22.24 159.44 23.712H163.52Z" fill="#DF931A"/>
<path d="M173.931 30.24C172.827 30.24 171.859 29.984 171.027 29.472C170.195 28.96 169.547 28.264 169.083 27.384C168.635 26.488 168.411 25.48 168.411 24.36C168.411 23.112 168.635 22.048 169.083 21.168C169.547 20.288 170.179 19.624 170.979 19.176C171.779 18.712 172.683 18.48 173.691 18.48C174.683 18.48 175.579 18.68 176.379 19.08C177.179 19.48 177.811 20.048 178.275 20.784C178.739 21.504 178.971 22.336 178.971 23.28C178.971 23.584 178.955 23.928 178.923 24.312L178.875 24.792H171.651C171.651 26.312 171.883 27.424 172.347 28.128C172.811 28.816 173.459 29.16 174.291 29.16C175.059 29.16 175.699 28.992 176.211 28.656C176.739 28.304 177.243 27.808 177.723 27.168L178.467 27.72C178.003 28.44 177.419 29.04 176.715 29.52C176.027 30 175.099 30.24 173.931 30.24ZM175.731 23.712C175.731 22.208 175.555 21.144 175.203 20.52C174.851 19.88 174.347 19.56 173.691 19.56C173.083 19.56 172.587 19.888 172.203 20.544C171.835 21.184 171.651 22.24 171.651 23.712H175.731Z" fill="#DF931A"/>
<path d="M186.286 30.408C185.39 30.408 184.526 30.288 183.694 30.048C182.862 29.824 182.182 29.496 181.654 29.064C181.126 28.616 180.862 28.104 180.862 27.528V24.72H181.534C181.774 26.352 182.278 27.528 183.046 28.248C183.814 28.968 184.886 29.328 186.262 29.328C187.19 29.328 187.926 29.128 188.47 28.728C189.014 28.328 189.286 27.752 189.286 27C189.286 26.36 189.086 25.816 188.686 25.368C188.286 24.92 187.662 24.432 186.814 23.904L183.862 22.128C182.79 21.504 182.022 20.856 181.558 20.184C181.11 19.512 180.886 18.728 180.886 17.832C180.886 16.568 181.366 15.568 182.326 14.832C183.302 14.096 184.614 13.728 186.262 13.728C187.158 13.728 188.022 13.848 188.854 14.088C189.686 14.312 190.366 14.648 190.894 15.096C191.422 15.528 191.686 16.032 191.686 16.608V19.416H191.014C190.742 17.784 190.238 16.608 189.502 15.888C188.766 15.168 187.774 14.808 186.526 14.808C185.662 14.808 184.974 15.016 184.462 15.432C183.966 15.848 183.718 16.416 183.718 17.136C183.718 17.76 183.91 18.28 184.294 18.696C184.694 19.096 185.334 19.552 186.214 20.064L189.166 21.816C190.286 22.472 191.086 23.112 191.566 23.736C192.062 24.344 192.31 25.08 192.31 25.944C192.31 27.336 191.782 28.432 190.726 29.232C189.686 30.016 188.206 30.408 186.286 30.408Z" fill="#DF931A"/>
<path d="M194.627 17.28C194.627 16.464 194.515 15.864 194.291 15.48C194.067 15.08 193.619 14.88 192.947 14.88H192.707V14.16H195.587C196.163 14.16 196.603 14.256 196.907 14.448C197.211 14.64 197.427 14.96 197.555 15.408C197.683 15.84 197.747 16.464 197.747 17.28V19.392C197.891 19.28 198.139 19.128 198.491 18.936C199.131 18.632 199.763 18.48 200.387 18.48C201.683 18.48 202.763 18.816 203.627 19.488C204.507 20.144 204.947 21.272 204.947 22.872V30H201.827V22.992C201.827 21.84 201.619 21 201.203 20.472C200.803 19.944 200.291 19.68 199.667 19.68C199.235 19.68 198.779 19.824 198.299 20.112C198.107 20.224 197.923 20.36 197.747 20.52V30H194.627V17.28Z" fill="#DF931A"/>
<path d="M212.866 30.24C211.698 30.24 210.674 29.984 209.794 29.472C208.93 28.944 208.266 28.24 207.802 27.36C207.338 26.464 207.106 25.464 207.106 24.36C207.106 23.256 207.338 22.264 207.802 21.384C208.266 20.488 208.93 19.784 209.794 19.272C210.674 18.744 211.698 18.48 212.866 18.48C214.034 18.48 215.05 18.744 215.914 19.272C216.794 19.784 217.466 20.488 217.93 21.384C218.394 22.264 218.626 23.256 218.626 24.36C218.626 25.464 218.394 26.464 217.93 27.36C217.466 28.24 216.794 28.944 215.914 29.472C215.05 29.984 214.034 30.24 212.866 30.24ZM212.866 29.16C213.682 29.16 214.306 28.72 214.738 27.84C215.17 26.96 215.386 25.8 215.386 24.36C215.386 22.92 215.17 21.76 214.738 20.88C214.306 20 213.682 19.56 212.866 19.56C212.05 19.56 211.426 20 210.994 20.88C210.562 21.76 210.346 22.92 210.346 24.36C210.346 25.8 210.562 26.96 210.994 27.84C211.426 28.72 212.05 29.16 212.866 29.16Z" fill="#DF931A"/>
<path d="M221.404 21.84C221.404 21.024 221.292 20.424 221.068 20.04C220.86 19.64 220.42 19.44 219.748 19.44H219.508V18.72H221.884C222.444 18.72 222.876 18.8 223.18 18.96C223.484 19.104 223.724 19.36 223.9 19.728C224.844 18.896 225.932 18.48 227.164 18.48C228.78 18.48 230.02 19.032 230.884 20.136C231.764 21.224 232.204 22.632 232.204 24.36C232.204 26.088 231.756 27.504 230.86 28.608C229.98 29.696 228.708 30.24 227.044 30.24C226.388 30.24 225.772 30.12 225.196 29.88C224.94 29.784 224.716 29.664 224.524 29.52V34.56H221.404V21.84ZM226.564 29.16C228.164 29.16 228.964 27.56 228.964 24.36C228.964 22.888 228.78 21.72 228.412 20.856C228.044 19.992 227.468 19.56 226.684 19.56C225.788 19.56 225.012 19.888 224.356 20.544L224.428 20.88C224.492 21.072 224.524 21.344 224.524 21.696V28.44C224.7 28.584 224.892 28.704 225.1 28.8C225.548 29.04 226.036 29.16 226.564 29.16Z" fill="#DF931A"/>
</svg>
