<svg width="27" height="40" viewBox="0 0 27 40" fill="none" xmlns="http://www.w3.org/2000/svg">
<path d="M20.9298 17.4093H2.86337V33.1606C3.02244 33.5291 3.40877 34.3351 3.68147 34.6114C3.95417 34.8877 4.7041 35.3713 5.04498 35.5786H18.6119C18.9755 35.4404 19.8118 35.0674 20.2481 34.6805C20.6844 34.2936 20.8844 33.4139 20.9298 33.0225V17.4093Z" fill="#DF931A"/>
<path d="M21.9525 22.5216V20.5181C23.5887 20.8405 26.8884 22.3282 26.9975 25.6995C27.1065 29.0708 23.6796 30.7887 21.9525 31.2263V29.2228C22.8615 28.7392 24.6795 27.3575 24.6795 25.6995C24.6795 24.0415 22.8615 22.89 21.9525 22.5216Z" fill="#DF931A"/>
<path d="M23.8614 36.6149H0C0.159076 37.1675 0.599944 38.4111 1.09081 38.9637C1.58167 39.5164 2.43159 39.8849 2.79519 40H21.2025C21.5434 39.8618 22.3615 39.4335 22.9069 38.8256C23.4523 38.2176 23.7705 37.0984 23.8614 36.6149Z" fill="#DF931A"/>
<path d="M5.99943 11.8826C5.99943 13.431 7.81745 15.2216 8.79463 15.8204C8.15832 15.0835 6.88572 13.3057 6.88572 12.0898C6.88572 10.5699 9.20368 8.49741 9.34003 7.1848C9.44911 6.13472 8.06742 4.8129 7.36294 4.28325C7.74927 4.85895 8.53556 6.24525 8.5901 7.1848C8.65828 8.35924 5.99943 9.53368 5.99943 11.8826Z" fill="#DF931A"/>
<path d="M10.0218 10.9154C10.0218 13.3472 12.6579 15.1986 13.976 15.8204C13.0897 14.8532 11.3171 12.5181 11.3171 10.9154C11.2489 7.9093 14.3168 6.2867 14.5214 4.28325C14.685 2.68048 12.7261 0.759931 11.7262 0C12.2943 0.944157 13.4306 3.12263 13.4306 4.28325C13.4306 5.73402 10.0218 7.87565 10.0218 10.9154Z" fill="#DF931A"/>
<path d="M14.5895 12.0898C14.5895 13.8584 16.6348 15.3138 17.6574 15.8204C16.9757 15.1065 15.5849 13.361 15.4758 12.0898C15.3395 10.5009 17.9983 8.91192 17.9983 7.1848C17.9983 5.80311 16.7257 4.67473 16.0894 4.28325C16.453 4.76684 17.1802 6.02418 17.1802 7.1848C17.1802 8.63558 14.5895 9.8791 14.5895 12.0898Z" fill="#DF931A"/>
</svg>
